<svg width="354" height="320" viewBox="0 0 354 320" fill="none" xmlns="http://www.w3.org/2000/svg">
<g style="mix-blend-mode:multiply" clip-path="url(#clip0_25_18)">
<path d="M0.711799 262.985C3.80208 261.474 5.11399 257.463 8.46665 256.416C11.9068 255.341 15.7259 257.463 18.8745 255.137C20.2447 254.12 21.2651 252.434 22.9268 251.823C24.3845 251.3 25.9005 251.882 27.2999 252.318C28.4952 252.695 29.6905 253.044 30.8858 253.422C35.6961 254.905 40.4773 256.358 45.2876 257.84C50.7393 259.497 56.1619 261.183 61.6136 262.84C62.1384 263.015 62.3716 262.172 61.8469 261.997C51.8763 258.945 41.935 255.893 31.9644 252.841C29.6321 252.143 27.2124 251.068 24.7927 250.777C23.1017 250.574 21.7607 251.242 20.5654 252.347C18.9036 253.887 17.65 255.312 15.2303 255.428C13.2187 255.544 11.2362 255.021 9.22464 255.341C5.08483 255.98 3.80208 260.486 0.303647 262.201C-0.221118 262.491 0.216189 263.247 0.711799 262.985Z" fill="#E8E8E8"/>
<path d="M53.1008 259.323C55.1707 259.846 56.8033 257.782 58.6691 257.172C61.1763 256.329 63.8584 256.678 66.1324 257.986C66.628 258.276 67.0653 257.521 66.5697 257.23C64.6456 256.096 62.4591 255.631 60.2434 255.922C59.2813 256.038 58.3776 256.3 57.503 256.678C56.2494 257.23 54.7917 258.829 53.334 258.48C52.7801 258.334 52.5468 259.177 53.1008 259.323Z" fill="#E8E8E8"/>
<path d="M75.5782 257.143C73.6249 255.544 71.7591 253.829 70.0098 251.998C69.1935 251.155 68.4064 250.254 67.6484 249.353C67.2111 248.829 66.7738 248.306 66.3657 247.783C66.0741 247.405 65.7826 247.027 65.5202 246.649C65.0537 246.184 65.0537 245.603 65.5494 244.963C65.8992 245.109 66.4531 244.76 66.1616 244.353C64.3832 241.969 63.0713 239.353 62.2258 236.505C62.0509 236.679 61.876 236.853 61.7011 237.028C62.6631 237.289 63.3628 237.784 63.8876 238.597C64.1791 239.063 64.9371 238.656 64.6456 238.161C60.3017 230.662 56.745 222.756 54.0628 214.529C53.8296 214.675 53.5672 214.82 53.334 214.965C65.5494 226.941 71.0885 243.597 81.3797 256.997C81.7296 257.433 82.4876 256.997 82.1377 256.561C71.8174 243.103 66.2199 226.389 53.9462 214.355C53.6547 214.064 53.0716 214.355 53.2174 214.791C55.9287 223.104 59.4854 231.069 63.8876 238.627C64.15 238.481 64.3832 238.336 64.6456 238.191C63.9751 237.173 63.1005 236.505 61.9343 236.214C61.6136 236.127 61.2929 236.417 61.4095 236.737C62.2841 239.644 63.6252 242.347 65.4327 244.789C65.6368 244.585 65.8409 244.382 66.045 244.178C65.2287 243.801 64.3249 244.178 64.1208 245.138C63.8584 246.504 65.5202 248.015 66.2782 248.975C68.8729 252.201 71.8174 255.137 75.0243 257.753C75.4033 258.102 76.0155 257.492 75.5782 257.143Z" fill="#E8E8E8"/>
<path d="M72.5171 238.975C67.1528 230.982 62.8089 222.407 59.602 213.338C59.5146 213.512 59.3979 213.686 59.3105 213.861C60.3017 213.628 61.1472 214.006 61.7011 214.878C61.9926 215.372 62.6923 214.936 62.4591 214.442C57.9403 204.704 53.334 194.56 53.6547 183.601C53.3923 183.688 53.1008 183.747 52.8384 183.834C60.6224 199.821 68.0274 216.012 75.0243 232.348C75.2283 232.813 75.9863 232.464 75.8114 231.999C74.6453 228.511 73.5083 224.994 72.3421 221.506C71.7882 219.791 71.2051 218.105 70.6512 216.39C70.2722 215.256 69.4559 212.785 71.0885 212.175C70.9136 212.117 70.7678 212.03 70.5929 211.971C72.692 216.07 74.7619 220.169 76.8609 224.267C77.1233 224.761 77.8813 224.325 77.6189 223.831C75.345 219.384 74.2954 214.471 74.4995 209.472C74.208 209.501 73.9164 209.559 73.654 209.588C79.718 224.616 86.744 239.266 94.6446 253.422C94.907 253.916 95.665 253.48 95.4026 252.986C87.5312 238.888 80.5343 224.325 74.4995 209.355C74.3246 208.919 73.654 208.948 73.654 209.472C73.45 214.617 74.5578 219.645 76.8901 224.267C77.1525 224.122 77.3857 223.976 77.6481 223.831C75.549 219.733 73.4791 215.634 71.3801 211.535C71.2926 211.39 71.0594 211.274 70.8845 211.332C67.9691 212.407 69.8349 216.564 70.4763 218.512C71.9923 223.075 73.4791 227.668 74.9951 232.232C75.2575 232.115 75.5199 231.999 75.7822 231.883C68.7854 215.547 61.3804 199.356 53.5964 183.369C53.3923 182.962 52.7801 183.194 52.7801 183.601C52.4302 194.705 57.124 205.024 61.7011 214.878C61.9635 214.733 62.1967 214.588 62.4591 214.442C61.7011 213.25 60.4766 212.727 59.0772 213.018C58.844 213.076 58.6983 213.338 58.7857 213.541C62.0218 222.668 66.3948 231.331 71.7882 239.382C72.0797 239.876 72.8377 239.44 72.5171 238.975Z" fill="#E8E8E8"/>
<path d="M14.9096 295.163C24.9967 290.309 35.6378 285.368 47.1534 286.53C52.6052 287.083 57.882 288.652 63.3045 289.35C66.045 289.699 68.8146 289.844 71.555 289.524C74.1205 289.205 76.5402 288.274 79.0475 287.722C82.2835 286.995 85.228 287.751 88.3475 288.623C90.913 289.321 93.4493 289.902 96.1023 289.292C96.6562 289.176 96.423 288.333 95.8691 288.449C90.5631 289.699 85.5779 285.891 80.2136 286.647C77.5606 287.024 75.0826 288.071 72.4588 288.536C69.6892 289.001 66.8613 288.943 64.0625 288.594C58.5525 287.955 53.1882 286.327 47.6491 285.716C42.1973 285.106 36.8039 285.804 31.5854 287.315C25.6381 289.059 20.0115 291.733 14.4723 294.408C13.9475 294.64 14.414 295.396 14.9096 295.163Z" fill="#E8E8E8"/>
<path d="M74.0914 319.261C77.5023 317.807 80.855 316.208 84.091 314.406C85.7819 313.447 87.4437 312.459 89.1055 311.412C90.5923 310.453 92.0791 309.087 93.7117 308.389C95.5484 307.633 98.318 309.058 100.155 309.61C102.108 310.22 104.061 310.802 105.985 311.412C109.979 312.633 113.973 313.854 117.938 315.075C118.463 315.249 118.696 314.406 118.172 314.232C113.915 312.924 109.63 311.616 105.373 310.308C103.332 309.668 101.292 309.058 99.2509 308.418C97.6766 307.924 95.6942 306.907 94.0324 307.314C92.4873 307.692 91.0879 309.029 89.776 309.901C88.0851 311.005 86.3359 312.081 84.5867 313.098C81.0591 315.104 77.4149 316.906 73.6541 318.476C73.1293 318.708 73.5957 319.464 74.0914 319.261Z" fill="#E8E8E8"/>
<path d="M110.358 320.162C112.574 319.057 114.79 317.924 117.005 316.819C119.046 315.773 121.233 314.377 123.565 314.174C125.926 313.941 127.763 315.482 129.804 316.383C131.524 317.139 133.39 317.575 135.256 317.691C139.629 317.924 143.71 315.743 148.054 315.976C151.523 316.18 155.022 319.028 158.433 317.226C158.928 316.964 158.491 316.209 157.995 316.47C155.867 317.604 153.564 316.499 151.465 315.831C149.657 315.249 147.908 314.988 146.013 315.191C141.524 315.656 137.413 317.546 132.807 316.47C128.988 315.598 126.072 312.43 121.962 313.622C120.067 314.174 118.288 315.22 116.539 316.092C114.323 317.197 112.108 318.331 109.892 319.435C109.425 319.668 109.863 320.423 110.358 320.162Z" fill="#E8E8E8"/>
<path d="M127.384 313.854C125.577 312.284 123.944 310.54 122.603 308.535C121.991 307.634 121.437 306.674 120.912 305.715C120.65 305.221 120.416 304.727 120.212 304.233C120.037 303.826 119.862 303.448 119.717 303.041C119.454 302.605 119.571 302.198 120.067 301.82C120.329 301.704 120.591 301.587 120.854 301.471C117.647 296.762 115.635 291.414 114.965 285.775C114.702 285.891 114.469 285.978 114.207 286.094C114.731 286.763 115.256 287.431 115.81 288.129C116.131 288.536 116.743 288.013 116.51 287.606C111.437 278.566 108.726 268.392 108.667 258.044C108.405 258.16 108.172 258.247 107.909 258.364C109.892 259.962 111.408 261.939 112.341 264.293C112.603 264.177 112.866 264.061 113.128 263.945C110.854 259.148 110.388 253.742 111.729 248.626C111.437 248.626 111.175 248.626 110.883 248.626C116.86 265.689 122.807 282.722 128.783 299.785C128.958 300.308 129.804 300.076 129.629 299.553C126.626 290.803 125.139 281.618 125.227 272.345C124.964 272.462 124.731 272.549 124.469 272.665C126.247 274.264 127.355 276.269 127.763 278.624C127.851 279.118 128.638 279.002 128.609 278.508C128.521 276.734 128.404 274.932 128.317 273.159C128.084 273.275 127.88 273.421 127.646 273.537C129.192 274.525 129.483 277.141 129.979 278.769C130.504 280.513 131.028 282.257 131.582 284.03C132.661 287.635 133.769 291.21 134.847 294.815C137.034 301.994 139.22 309.203 141.407 316.383C141.582 316.906 142.427 316.703 142.252 316.15C139.891 308.418 137.559 300.657 135.197 292.925C134.06 289.146 132.894 285.368 131.757 281.589C131.174 279.641 130.591 277.723 130.008 275.775C129.629 274.583 129.192 273.508 128.113 272.81C127.851 272.636 127.442 272.868 127.442 273.188C127.53 274.961 127.646 276.764 127.734 278.537C128.025 278.508 128.317 278.449 128.579 278.42C128.171 275.921 126.947 273.74 125.052 272.055C124.76 271.793 124.323 271.967 124.294 272.374C124.206 281.705 125.693 290.978 128.725 299.814C129.017 299.727 129.279 299.669 129.571 299.582C123.594 282.519 117.647 265.485 111.67 248.422C111.525 248.045 110.941 247.986 110.825 248.422C109.425 253.8 109.95 259.41 112.312 264.41C112.516 264.846 113.303 264.526 113.099 264.061C112.108 261.561 110.562 259.439 108.434 257.753C108.143 257.521 107.676 257.666 107.676 258.073C107.735 268.566 110.475 278.915 115.635 288.071C115.868 287.896 116.102 287.722 116.335 287.548C115.81 286.879 115.285 286.211 114.731 285.513C114.498 285.222 113.944 285.455 113.973 285.833C114.644 291.646 116.685 297.14 119.979 301.965C120.271 302.372 120.854 302.111 120.766 301.616C120.62 300.803 119.658 300.512 118.988 301.006C117.763 301.878 118.959 303.942 119.396 304.93C121.058 308.622 123.536 311.848 126.597 314.493C127.209 314.813 127.821 314.203 127.384 313.854Z" fill="#E8E8E8"/>
<path d="M96.8894 248.655C96.5104 243.19 106.452 246.33 109.221 246.853C113.769 247.696 118.288 248.539 122.836 249.382C131.903 251.068 140.999 252.754 150.066 254.44C150.619 254.556 150.853 253.713 150.299 253.597C139.891 251.649 129.512 249.731 119.104 247.783C114.003 246.824 108.901 245.865 103.799 244.934C101.962 244.586 99.8339 244.208 98.1139 245.167C96.802 245.865 95.9273 247.144 96.044 248.655C96.044 249.207 96.9477 249.207 96.8894 248.655Z" fill="#E8E8E8"/>
<path d="M144.031 253.48C147.063 253.8 148.929 250.922 151.29 249.527C153.302 248.364 155.051 249.265 157.121 249.672C159.424 250.137 161.785 250.196 164.118 249.905C164.672 249.847 164.672 248.975 164.118 249.033C161.494 249.353 158.87 249.236 156.304 248.597C154.759 248.19 153.36 247.696 151.815 248.306C149.074 249.353 147.209 252.957 144.031 252.608C143.477 252.55 143.477 253.422 144.031 253.48Z" fill="#E8E8E8"/>
<path d="M199.627 309.377C206.624 306.936 213.679 304.494 220.909 302.75C228.46 300.948 236.069 300.221 243.824 300.454C251.491 300.686 259.1 301.558 266.738 302.256C274.406 302.983 282.073 303.68 289.74 304.407C298.545 305.221 307.378 306.035 316.183 306.878C316.737 306.936 316.737 306.064 316.183 306.006C300.469 304.552 284.755 303.099 269.012 301.616C253.882 300.221 238.663 298.157 223.591 301.268C215.311 302.983 207.323 305.773 199.364 308.535C198.869 308.709 199.102 309.552 199.627 309.377Z" fill="#E8E8E8"/>
<path d="M230.442 280.775C235.66 279.67 240.558 277.49 245.485 275.514C250.762 273.421 256.097 271.967 261.753 271.473C267.467 270.979 273.21 271.27 278.895 271.619C284.609 271.967 290.323 272.374 296.067 272.781C302.743 273.275 309.448 273.828 316.124 274.409C316.678 274.467 316.678 273.595 316.124 273.537C304.288 272.491 292.452 271.59 280.586 270.834C269.304 270.107 258.196 269.816 247.439 273.799C241.724 275.921 236.185 278.624 230.18 279.903C229.684 280.048 229.888 280.891 230.442 280.775Z" fill="#E8E8E8"/>
<path d="M297.641 247.26C301.81 244.091 306.212 240.981 310.877 238.598C313.151 237.435 315.6 236.505 318.165 236.301C320.935 236.069 323.704 236.621 326.416 236.97C331.926 237.638 337.465 238.045 343.004 238.394C346.677 238.627 351.342 239.15 353.937 235.952C354.286 235.516 353.674 234.906 353.324 235.342C350.38 238.975 344.17 237.609 340.147 237.348C334.608 236.97 329.127 236.446 323.617 235.749C321.255 235.458 318.923 235.226 316.562 235.662C314.229 236.069 312.043 236.999 309.973 238.103C305.483 240.487 301.227 243.452 297.175 246.533C296.766 246.853 297.204 247.608 297.641 247.26Z" fill="#E8E8E8"/>
<path d="M137.151 242.463C141.29 239.353 145.459 236.272 149.599 233.162C153.564 230.197 157.267 227.087 162.456 226.825C167.354 226.592 172.368 227.145 177.237 227.552C182.484 227.988 187.703 228.569 192.892 229.296C197.265 229.906 202.484 231.534 206.624 229.267C207.119 229.005 206.682 228.249 206.186 228.511C204.058 229.674 201.697 229.674 199.335 229.383C196.799 229.063 194.262 228.627 191.726 228.278C186.828 227.61 181.901 227.058 176.945 226.651C172.077 226.244 167.033 225.662 162.164 225.953C157.646 226.215 154.293 228.54 150.765 231.185C146.072 234.673 141.407 238.191 136.713 241.679C136.276 242.057 136.713 242.812 137.151 242.463Z" fill="#E8E8E8"/>
<path d="M301.169 273.188C301.431 271.27 301.81 269.409 302.364 267.549C302.626 266.677 302.889 265.805 303.239 264.933C303.443 264.41 303.997 263.538 304.755 263.741C305.134 263.857 305.308 265.165 305.338 265.427C305.396 265.892 306.037 266.038 306.183 265.543C307.553 261.096 309.128 256.213 313.326 253.626C313.092 253.509 312.888 253.364 312.655 253.248C312.655 253.974 312.626 254.73 312.626 255.457C312.626 255.864 313.238 256.067 313.442 255.689C316.037 250.312 318.865 244.673 324.113 241.417C323.908 241.243 323.675 241.097 323.471 240.923C320.847 247.696 317.786 254.294 314.317 260.689C314.084 261.096 314.667 261.619 315.017 261.212C316.97 258.887 318.952 256.561 321.518 254.876C321.314 254.672 321.11 254.469 320.906 254.265C317.67 261.067 314.142 267.694 310.265 274.147C309.973 274.642 310.731 275.078 311.023 274.583C314.871 268.13 318.428 261.503 321.664 254.701C321.839 254.352 321.46 253.829 321.051 254.091C318.428 255.835 316.387 258.189 314.375 260.573C314.608 260.747 314.842 260.922 315.075 261.096C318.573 254.643 321.664 247.986 324.317 241.126C324.462 240.778 323.967 240.458 323.675 240.632C318.282 243.975 315.366 249.701 312.684 255.224C312.947 255.312 313.238 255.37 313.501 255.457C313.501 254.73 313.53 253.974 313.53 253.248C313.53 252.928 313.151 252.695 312.859 252.87C308.486 255.573 306.766 260.631 305.338 265.311C305.629 265.34 305.921 265.398 306.183 265.427C306.037 263.945 304.696 261.416 303.064 263.305C302.247 264.264 301.927 265.834 301.577 267.026C300.994 268.944 300.586 270.921 300.294 272.927C300.265 273.508 301.081 273.74 301.169 273.188Z" fill="#E8E8E8"/>
<path d="M97.4726 224.122C99.7466 222.901 102.05 221.68 104.557 221.012C107.21 220.314 109.834 220.546 112.487 220.895C117.763 221.593 123.04 222.291 128.288 222.988C128.842 223.075 128.842 222.203 128.288 222.116C122.661 221.36 117.005 220.546 111.379 219.878C108.784 219.558 106.306 219.558 103.799 220.285C101.408 220.982 99.1927 222.174 97.0061 223.337C96.5105 223.657 96.977 224.383 97.4726 224.122Z" fill="#E8E8E8"/>
<path d="M274.814 26.9552C276.913 25.1821 279.857 25.5309 282.16 26.6646C283.91 27.5075 285.338 29.2225 287.379 29.3097C289.274 29.3679 290.848 28.0889 292.452 27.2459C293.53 26.6936 294.638 26.3158 295.863 26.5774C297.175 26.839 298.312 27.5947 299.507 28.118C303.443 29.833 306.066 27.4494 309.39 25.56C310.323 25.0368 311.314 24.5717 312.393 24.4845C313.763 24.3682 314.987 24.9786 316.212 25.5019C318.136 26.3158 319.594 26.6355 321.547 25.8507C323.559 25.0658 325.191 25.1821 327.203 25.9088C328.486 26.3739 329.71 26.9552 331.051 27.2459C333.063 27.711 335.22 27.5947 336.736 26.0541C337.144 25.6472 336.503 25.0368 336.124 25.4437C334.17 27.4203 331.197 26.4902 328.952 25.6181C326.678 24.7461 324.346 23.8159 321.926 24.717C320.41 25.2984 319.39 25.7053 317.757 25.153C316.649 24.7752 315.629 24.1647 314.492 23.845C312.772 23.3218 311.168 23.6125 309.594 24.3973C307.786 25.2984 306.212 26.7227 304.317 27.4785C301.81 28.4668 299.857 27.1587 297.583 26.1995C295.921 25.5019 294.347 25.3856 292.685 26.1123C290.673 27.0134 288.72 28.99 286.359 28.147C285.105 27.711 284.114 26.6936 282.977 26.0541C282.015 25.5309 280.965 25.153 279.886 24.9496C277.817 24.5717 275.805 24.9205 274.172 26.2867C273.764 26.7227 274.406 27.3331 274.814 26.9552Z" fill="#E8E8E8"/>
<path d="M285.309 46.8084C285.863 46.8084 285.863 45.9364 285.309 45.9364C284.755 45.9364 284.755 46.8084 285.309 46.8084Z" fill="#E8E8E8"/>
<path d="M291.14 49.9768C292.51 47.5061 295.746 48.6978 297.758 49.5117C299.769 50.3256 301.577 50.8198 303.705 50.0931C305.454 49.4827 307.028 48.3199 308.836 47.913C311.343 47.3316 312.772 49.4536 315.046 49.9477C318.602 50.7326 322.188 46.7794 325.541 48.4362C326.474 48.9013 327.115 49.5117 328.223 49.4245C329.243 49.3664 330.176 48.8722 331.168 48.6397C333.937 48.0002 336.823 48.4944 339.301 49.8605C339.797 50.1222 340.234 49.3664 339.739 49.1048C338.164 48.2327 336.474 47.7095 334.695 47.5351C333.791 47.4479 332.859 47.477 331.955 47.6223C330.876 47.7677 329.885 48.2327 328.835 48.4362C327.407 48.6978 326.795 48.0002 325.628 47.5061C325.045 47.2735 324.404 47.1572 323.792 47.1863C322.334 47.2444 320.935 47.8549 319.594 48.349C317.874 48.9885 316.037 49.5989 314.288 48.7269C312.801 48.0002 311.635 46.8956 309.885 46.8956C306.27 46.9247 303.734 50.3838 299.915 49.3373C297.087 48.5525 292.539 45.7911 290.44 49.5117C290.119 50.0349 290.877 50.471 291.14 49.9768Z" fill="#E8E8E8"/>
<path d="M262.861 84.7709C264.931 83.1431 267.292 83.2303 269.566 84.2768C270.82 84.8581 272.161 85.4104 273.473 84.6256C274.231 84.1605 274.726 83.4338 275.63 83.1722C276.592 82.8815 277.613 83.085 278.545 83.3176C280.207 83.7245 281.811 84.4512 283.531 84.5675C285.571 84.7128 287.437 83.8408 289.42 83.6373C291.548 83.4338 293.035 84.7128 295.017 85.0035C296.941 85.2651 298.428 83.7245 300.352 84.0152C302.685 84.364 304.988 85.1488 307.291 85.7302C307.845 85.8755 308.078 85.0325 307.524 84.8872C305.104 84.2768 302.597 83.3466 300.119 83.085C298.02 82.8525 296.504 84.5675 294.405 83.928C292.452 83.3466 291.052 82.5037 288.953 82.7943C286.708 83.1141 284.668 83.9861 282.365 83.492C280.586 83.1141 278.866 82.2711 277.029 82.1548C276.359 82.1258 275.659 82.1839 275.018 82.4455C274.202 82.7653 273.764 83.4338 273.006 83.8698C271.257 84.8872 268.896 82.7362 267.03 82.5909C265.251 82.4455 263.619 83.0559 262.219 84.1314C261.782 84.5093 262.424 85.1197 262.861 84.7709Z" fill="#E8E8E8"/>
<path d="M95.7233 21.3452C96.2773 21.3452 96.2773 20.4731 95.7233 20.4731C95.1694 20.4731 95.1694 21.3452 95.7233 21.3452Z" fill="#E8E8E8"/>
<path d="M98.2888 22.0137C98.8136 19.4267 102.254 21.0835 103.507 21.8684C104.936 22.7695 106.452 23.5834 108.201 23.0892C110.096 22.5369 111.379 20.9091 113.478 20.7929C115.46 20.7056 117.384 21.6067 119.25 22.1881C120.854 22.6823 122.545 23.0311 124.206 22.6241C126.16 22.159 127.821 20.7929 129.804 20.444C133.71 19.7755 137.238 22.9439 141.203 21.723C141.728 21.5486 141.524 20.7056 140.97 20.8801C136.83 22.1881 132.894 18.5256 128.696 19.8336C126.539 20.5022 124.731 22.0137 122.37 21.9265C120.183 21.8393 118.201 20.7929 116.131 20.2696C114.498 19.8627 112.836 19.7464 111.262 20.4731C110.358 20.8801 109.571 21.5486 108.667 21.9846C107.181 22.6823 105.927 22.2753 104.586 21.5195C103.128 20.6766 101.875 19.6883 100.096 19.8336C98.8427 19.9208 97.7349 20.5603 97.5017 21.8393C97.3559 22.3334 98.2013 22.566 98.2888 22.0137Z" fill="#E8E8E8"/>
<path d="M100.942 191.74C104.411 190.287 107.909 192.874 111.408 193.048C113.215 193.136 114.965 192.7 116.743 192.351C118.988 191.915 120.912 191.886 123.069 192.787C124.381 193.339 125.577 193.688 126.918 193.165C127.676 192.874 128.317 192.38 129.075 192.118C129.92 191.827 130.795 191.769 131.699 191.769C134.818 191.827 137.938 192.903 140.911 191.508C141.407 191.275 140.97 190.519 140.474 190.752C137.296 192.234 133.769 190.607 130.416 190.955C128.813 191.13 127.763 192.06 126.276 192.496C124.498 193.019 122.749 191.508 120.999 191.246C117.239 190.665 113.682 192.758 109.892 192.002C106.86 191.391 103.799 189.618 100.709 190.926C100.213 191.13 100.446 191.973 100.942 191.74Z" fill="#E8E8E8"/>
<path d="M37.9118 148.924C40.4557 148.924 42.518 146.867 42.518 144.331C42.518 141.794 40.4557 139.738 37.9118 139.738C35.3678 139.738 33.3055 141.794 33.3055 144.331C33.3055 146.867 35.3678 148.924 37.9118 148.924Z" fill="#0A3871"/>
<path d="M306.037 117.356C307.825 117.356 309.273 115.911 309.273 114.129C309.273 112.347 307.825 110.903 306.037 110.903C304.25 110.903 302.801 112.347 302.801 114.129C302.801 115.911 304.25 117.356 306.037 117.356Z" fill="#0A3871"/>
<path d="M276.913 4.95089C278.233 4.95089 279.303 3.88373 279.303 2.56733C279.303 1.25093 278.233 0.183777 276.913 0.183777C275.593 0.183777 274.522 1.25093 274.522 2.56733C274.522 3.88373 275.593 4.95089 276.913 4.95089Z" fill="#0A3871"/>
<path d="M171.61 211.652C173.252 211.652 174.584 210.324 174.584 208.687C174.584 207.049 173.252 205.722 171.61 205.722C169.968 205.722 168.636 207.049 168.636 208.687C168.636 210.324 169.968 211.652 171.61 211.652Z" fill="#0A3871"/>
<path d="M34.5299 43.2622C36.4137 43.2622 37.9409 41.7396 37.9409 39.8613C37.9409 37.983 36.4137 36.4604 34.5299 36.4604C32.6461 36.4604 31.1189 37.983 31.1189 39.8613C31.1189 41.7396 32.6461 43.2622 34.5299 43.2622Z" fill="#0A3871"/>
<path d="M152.136 162.585C153.214 162.585 154.089 161.713 154.089 160.638C154.089 159.562 153.214 158.69 152.136 158.69C151.057 158.69 150.182 159.562 150.182 160.638C150.182 161.713 151.057 162.585 152.136 162.585Z" fill="#0A3871"/>
<path d="M336.503 179.154C338.145 179.154 339.476 177.827 339.476 176.189C339.476 174.552 338.145 173.224 336.503 173.224C334.86 173.224 333.529 174.552 333.529 176.189C333.529 177.827 334.86 179.154 336.503 179.154Z" fill="#0A3871"/>
<path d="M12.3732 228.162C13.5969 228.162 14.5889 227.173 14.5889 225.953C14.5889 224.733 13.5969 223.744 12.3732 223.744C11.1495 223.744 10.1575 224.733 10.1575 225.953C10.1575 227.173 11.1495 228.162 12.3732 228.162Z" fill="#0A3871"/>
<path d="M102.983 56.4881C100.446 61.6331 97.8807 66.7781 95.3443 71.923C105.84 85.9628 116.335 99.9734 126.83 114.013C129.541 109.915 132.224 105.729 134.935 101.514C141.319 91.5147 147.413 81.6317 153.243 71.8358C151.261 66.8071 149.249 61.7493 147.267 56.7206C145.984 56.0521 144.701 55.4126 143.419 54.744C130.999 54.7731 118.58 54.8021 106.189 54.8312C105.082 55.4126 104.032 55.9648 102.983 56.4881Z" fill="white"/>
<path d="M95.6942 72.1556C97.9099 67.3013 100.184 62.476 102.516 57.6798C102.749 57.1857 102.021 56.7206 101.758 57.2438C99.4258 62.04 97.1519 66.8652 94.9362 71.7196C94.7029 72.2137 95.4609 72.6788 95.6942 72.1556Z" fill="black"/>
<path d="M95.1111 72.6788C105.373 86.7185 115.839 100.584 126.51 114.333C126.859 114.769 127.472 114.159 127.122 113.722C116.51 100.032 106.102 86.2244 95.8691 72.2428C95.5484 71.8068 94.7904 72.2428 95.1111 72.6788Z" fill="black"/>
<path d="M102.72 57.1857C103.945 56.5462 105.14 55.8777 106.364 55.2382C106.86 54.9766 106.423 54.2208 105.927 54.4824C104.703 55.1219 103.507 55.7905 102.283 56.43C101.758 56.7206 102.225 57.4473 102.72 57.1857Z" fill="black"/>
<path d="M107.093 55.2963C116.189 55.2963 125.314 55.2963 134.41 55.2963C134.964 55.2963 134.964 54.4243 134.41 54.4243C125.314 54.4243 116.189 54.4243 107.093 54.4243C106.539 54.4243 106.539 55.2963 107.093 55.2963Z" fill="black"/>
<path d="M153.651 71.7486C151.815 66.8943 149.92 62.0981 147.967 57.2729C147.762 56.7497 146.917 56.9822 147.121 57.5054C149.074 62.3016 150.969 67.1268 152.806 71.9812C153.01 72.5044 153.856 72.2718 153.651 71.7486Z" fill="black"/>
<path d="M152.689 72.1847C144.147 86.1372 135.43 100.003 126.539 113.752C126.218 114.217 126.976 114.653 127.297 114.188C136.188 100.439 144.905 86.6023 153.447 72.6207C153.739 72.1556 152.981 71.6905 152.689 72.1847Z" fill="black"/>
<path d="M147.442 56.3719C146.421 55.7324 145.401 55.0638 144.381 54.4243C143.914 54.1336 143.477 54.8603 143.943 55.1801C144.964 55.8196 145.984 56.4881 147.004 57.1276C147.5 57.4474 147.937 56.6916 147.442 56.3719Z" fill="black"/>
<path d="M143.389 54.3371C135.78 54.3371 128.171 54.3371 120.591 54.3371C120.037 54.3371 120.037 55.2091 120.591 55.2091C128.2 55.2091 135.809 55.2091 143.389 55.2091C143.943 55.2091 143.943 54.3371 143.389 54.3371Z" fill="black"/>
<path d="M96.0441 72.5916C101.263 70.3534 106.481 68.1152 111.7 65.877C112.224 65.6444 111.758 64.9177 111.262 65.1212C106.044 67.3594 100.825 69.5977 95.6067 71.8359C95.1111 72.0684 95.5484 72.8242 96.0441 72.5916Z" fill="black"/>
<path d="M102.866 56.9241C106.073 57.4182 109.221 58.1159 112.341 58.9879C112.895 59.1332 113.128 58.2903 112.574 58.1449C109.455 57.2438 106.306 56.5753 103.099 56.0811C102.545 55.9939 102.283 56.8369 102.866 56.9241Z" fill="black"/>
<path d="M112.108 58.8426C112.807 61.0227 113.42 63.2028 113.944 65.441C114.061 65.9933 114.906 65.7607 114.79 65.2085C114.265 62.9702 113.653 60.7902 112.953 58.6101C112.778 58.0869 111.933 58.2903 112.108 58.8426Z" fill="black"/>
<path d="M113.449 58.9298C121.262 58.9298 129.046 58.9298 136.859 58.9298C137.413 58.9298 137.413 58.0578 136.859 58.0578C129.046 58.0578 121.262 58.0578 113.449 58.0578C112.895 58.0578 112.895 58.9298 113.449 58.9298Z" fill="black"/>
<path d="M136.48 59.1042C136.188 60.7029 135.897 62.3307 135.605 63.9295C135.518 64.4818 136.363 64.7143 136.451 64.162C136.742 62.5633 137.034 60.9355 137.325 59.3368C137.413 58.7845 136.567 58.5519 136.48 59.1042Z" fill="black"/>
<path d="M114.411 65.4991C121.233 65.4991 128.055 65.4991 134.906 65.4991C135.46 65.4991 135.46 64.627 134.906 64.627C128.084 64.627 121.262 64.627 114.411 64.627C113.857 64.627 113.857 65.4991 114.411 65.4991Z" fill="black"/>
<path d="M137.704 58.9298C140.882 58.2613 144.031 57.5927 147.209 56.9242C147.762 56.8079 147.529 55.9649 146.975 56.0812C143.798 56.7497 140.649 57.4183 137.471 58.0869C136.917 58.2031 137.151 59.0461 137.704 58.9298Z" fill="black"/>
<path d="M136.247 65.2375C139.191 65.7026 141.932 67.3594 144.614 68.6093C147.471 69.9465 150.299 71.2836 153.156 72.6207C153.652 72.8532 154.118 72.0975 153.593 71.8649C150.561 70.4406 147.558 69.0454 144.526 67.621C141.961 66.4002 139.308 64.8596 136.48 64.3945C135.926 64.3073 135.693 65.1503 136.247 65.2375Z" fill="black"/>
<path d="M114.673 66.8362C118.463 82.4165 122.224 98.0259 126.014 113.606C126.16 114.159 126.976 113.926 126.859 113.374C123.069 97.7934 119.309 82.184 115.519 66.6037C115.373 66.0514 114.527 66.2839 114.673 66.8362Z" fill="black"/>
<path d="M135.022 67.8826C131.466 82.8816 128.521 98.055 126.247 113.316C126.16 113.868 127.005 114.1 127.093 113.548C129.367 98.2875 132.311 83.1432 135.868 68.1152C136.014 67.5629 135.168 67.3303 135.022 67.8826Z" fill="black"/>
<path d="M135.314 38.7859C136.626 35.4431 137.355 31.9259 137.471 28.3215C137.5 27.7692 136.626 27.7692 136.597 28.3215C136.48 31.8387 135.751 35.2687 134.468 38.5533C134.264 39.0766 135.11 39.28 135.314 38.7859Z" fill="black"/>
<path d="M141.29 39.3672C144.089 36.1988 147.238 33.4083 150.765 31.0538C151.232 30.7341 150.794 29.9783 150.328 30.298C146.742 32.6816 143.506 35.5302 140.678 38.7568C140.299 39.1637 140.911 39.7741 141.29 39.3672Z" fill="black"/>
<path d="M147.034 44.7447C150.649 43.6692 154.38 43.2623 158.141 43.553C158.695 43.582 158.695 42.71 158.141 42.6809C154.293 42.3902 150.503 42.7972 146.8 43.9018C146.276 44.0762 146.48 44.9191 147.034 44.7447Z" fill="black"/>
<path d="M85.607 24.3682C85.9569 30.1236 82.7208 35.6174 77.5315 38.1173C77.2399 38.2626 77.2691 38.6986 77.5315 38.873C82.2835 41.7217 84.47 46.9539 85.7236 52.0989C85.8694 52.6512 86.6857 52.4186 86.5691 51.8663C85.2572 46.4888 82.9249 41.0531 77.9688 38.1173C77.9688 38.3789 77.9688 38.6114 77.9688 38.873C83.4205 36.2279 86.8606 30.3853 86.4816 24.3682C86.4525 23.8159 85.5779 23.8159 85.607 24.3682Z" fill="#E8E8E8"/>
<path d="M85.9277 24.3682C85.5487 30.4143 88.9888 36.2569 94.4405 38.873C94.4405 38.6114 94.4405 38.3789 94.4405 38.1173C89.4553 41.0822 87.123 46.5178 85.8111 51.9244C85.6653 52.4767 86.5108 52.7093 86.6565 52.157C87.9101 46.9829 90.0966 41.7217 94.8778 38.873C95.1402 38.7277 95.1694 38.2626 94.8778 38.1173C89.6885 35.6174 86.4233 30.1236 86.7731 24.3682C86.8314 23.8159 85.9568 23.8159 85.9277 24.3682Z" fill="#E8E8E8"/>
<path d="M227.877 242.58C228.897 242.144 230.296 241.504 231.9 240.603C234.582 239.121 235.923 238.365 236.739 237.173C237.789 235.604 237.381 234.761 238.751 233.191C238.955 232.929 239.917 231.912 241.171 231.36C243.328 230.459 245.339 231.534 248.692 232.726C251.782 233.83 254.202 234.354 259.042 235.429C260.966 235.865 263.298 236.301 266.68 237.348C267.642 237.638 268.4 237.9 268.925 238.074C268.983 238.685 269.012 240.254 267.992 241.679C267.525 242.318 266.884 242.841 265.864 243.307C263.502 244.411 261.257 244.208 259.362 244.12C255.281 243.946 256.972 244.527 247.351 244.702C245.252 244.731 243.532 244.731 242.337 244.731C240.85 245.748 239.363 246.795 237.847 247.87C235.282 249.73 232.833 251.591 230.5 253.422C229.626 249.818 228.751 246.184 227.877 242.58Z" fill="black"/>
<path d="M215.72 205.373C213.62 206.478 213.387 206.885 205.574 213.512C193.388 223.831 192.047 224.383 180.998 234.005C170.415 243.19 168.432 245.487 166.421 248.51C161.406 256.154 160.299 262.549 159.978 265.66C159.541 269.845 158.957 275.659 162.66 280.252C164.992 283.129 168.024 284.321 169.045 284.699C172.106 285.862 174.613 285.716 179.132 285.397C185.137 284.961 189.715 283.798 191.522 283.304C193.504 282.751 198.111 281.385 203.883 278.537C209.306 275.862 211.638 273.886 219.043 268.915C222.337 266.706 227.206 263.48 233.328 259.759C233.707 256.852 233.387 254.585 233.066 253.161C232.308 249.789 230.763 247.463 229.043 244.905C227.643 242.812 226.302 241.214 225.369 240.167C227.556 238.51 230.413 236.127 233.416 232.929C235.427 230.778 238.605 227.348 241.258 222.523C244.523 216.593 247.788 210.605 245.689 206.478C242.395 199.996 226.71 199.705 215.72 205.373Z" fill="white"/>
<path opacity="0.18" d="M241.841 208.541C240.179 212.378 237.439 217.814 233.066 223.628C226.71 232.028 220.297 236.679 210.618 243.568C183.242 263.044 175.896 267.491 176.712 269.351C177.82 271.88 193.242 267.346 195.487 266.677C211.871 261.852 223.941 254.41 231.492 248.975C229.567 246.039 227.643 243.103 225.719 240.196C228.081 238.51 231.346 235.836 234.407 231.854C236.098 229.674 238.663 226.302 240.325 221.215C242.016 216.157 242.074 211.652 241.841 208.541Z" fill="#9B9797"/>
<path d="M215.603 205.344C205.224 213.047 195.108 221.128 185.371 229.587C180.706 233.627 176.041 237.667 171.668 241.999C167.791 245.836 164.176 250.079 161.989 255.137C159.715 260.369 159.074 266.415 159.628 272.084C160.094 276.764 161.815 281.473 166.1 283.914C170.59 286.443 176.246 286.182 181.202 285.658C187.295 285.048 193.3 283.565 198.985 281.269C211.667 276.124 221.609 266.503 233.591 260.137C234.086 259.875 233.649 259.119 233.153 259.381C223.154 264.7 214.641 272.374 204.612 277.694C199.364 280.484 193.709 282.519 187.878 283.769C182.484 284.903 176.42 285.775 170.94 284.728C168.374 284.234 165.896 283.188 164.059 281.269C162.281 279.38 161.319 276.909 160.823 274.38C159.745 268.886 160.24 262.666 162.048 257.375C163.855 252.085 167.383 247.638 171.231 243.685C175.225 239.586 179.598 235.807 183.884 232.057C194.233 222.988 204.962 214.326 216.04 206.129C216.477 205.78 216.069 205.024 215.603 205.344Z" fill="black"/>
<path d="M187.032 264.933C196.595 261.241 205.253 255.719 213.475 249.672C217.527 246.708 221.521 243.626 225.486 240.545C229.393 237.493 233.124 234.267 236.156 230.342C236.506 229.906 235.748 229.47 235.398 229.906C232.308 233.918 228.43 237.144 224.466 240.254C220.559 243.307 216.623 246.33 212.6 249.265C204.554 255.137 196.128 260.544 186.799 264.119C186.274 264.294 186.508 265.136 187.032 264.933Z" fill="black"/>
<path d="M225.049 240.458C230.675 245.167 233.649 252.463 232.862 259.759C232.803 260.311 233.678 260.311 233.736 259.759C234.524 252.26 231.433 244.702 225.661 239.848C225.253 239.47 224.64 240.08 225.049 240.458Z" fill="black"/>
<path d="M232.803 251.649C234.465 251.155 235.923 249.76 237.322 248.771C239.071 247.55 240.792 246.33 242.541 245.109C243.007 244.789 242.57 244.033 242.103 244.353C240.529 245.457 238.926 246.591 237.351 247.696C235.894 248.713 234.29 250.283 232.57 250.806C232.016 250.951 232.25 251.794 232.803 251.649Z" fill="black"/>
<path d="M227.993 242.987C231.287 241.621 234.319 239.76 237.06 237.464C237.497 237.086 236.856 236.476 236.448 236.854C233.853 239.063 230.938 240.836 227.789 242.144C227.264 242.376 227.498 243.219 227.993 242.987Z" fill="black"/>
<path d="M236.739 237.086C237.293 237.086 237.293 236.214 236.739 236.214C236.185 236.214 236.185 237.086 236.739 237.086Z" fill="black"/>
<path d="M237.789 236.04C238.284 234.877 238.809 233.598 239.742 232.697C240.996 231.476 242.512 231.65 244.115 231.999C247.089 232.668 250.004 233.598 252.919 234.441C255.631 235.197 258.342 235.865 261.141 236.185C262.773 236.359 264.144 236.563 265.601 237.29C266.68 237.813 267.613 238.336 268.808 238.452C269.362 238.51 269.362 237.638 268.808 237.58C267.205 237.435 265.951 236.33 264.435 235.836C262.919 235.342 261.228 235.371 259.654 235.109C256.214 234.557 252.861 233.511 249.538 232.522C247.905 232.057 246.272 231.592 244.611 231.214C243.386 230.953 242.103 230.633 240.879 231.011C238.751 231.65 237.73 233.918 236.943 235.807C236.739 236.33 237.585 236.563 237.789 236.04Z" fill="black"/>
<path d="M242.424 245.748C248.663 244.818 254.844 244.673 261.141 244.556C263.327 244.527 265.66 244.266 267.409 242.841C268.896 241.621 269.741 239.847 269.333 237.958C269.216 237.406 268.371 237.638 268.487 238.191C269.041 240.836 266.651 242.783 264.289 243.365C261.87 243.946 259.246 243.655 256.768 243.714C251.87 243.801 247.03 244.208 242.191 244.934C241.637 244.993 241.899 245.835 242.424 245.748Z" fill="black"/>
<path d="M264.552 239.964C266.709 238.423 268.896 236.882 271.053 235.342C271.199 234.354 271.665 232.203 273.444 230.371C273.968 229.819 275.193 228.54 277.029 228.191C278.954 227.813 280.44 228.685 282.102 229.441C284.784 230.662 287.379 231.127 292.51 232.115C296.562 232.871 298.603 233.249 301.518 233.104C305.483 232.871 308.311 231.825 310.002 233.481C310.177 233.656 310.906 234.441 310.848 235.4C310.76 236.621 309.448 237.406 308.399 238.016C303.822 240.632 301.256 241.388 301.256 241.388C294.784 243.277 291.519 244.237 288.72 244.469C286.446 244.643 283.21 244.731 279.303 244.12C278.166 248.015 274.726 250.515 271.49 250.312C267.321 250.05 263.473 245.37 264.552 239.964Z" fill="black"/>
<path d="M222.687 214.268C223.328 212.32 224.524 209.849 226.769 209.036C228.226 208.512 229.567 208.861 230.005 208.977C232.716 209.646 238.284 208.687 249.392 206.797C254.902 205.867 261.87 204.501 269.887 202.466C269.916 203.949 269.887 205.896 269.799 208.164C269.595 213.25 269.07 217.087 268.954 217.988C268.458 221.593 267.584 227.581 264.931 234.848C264.26 236.708 263.59 238.249 263.123 239.295C264.26 239.818 265.485 240.516 266.68 241.504C271.607 245.428 273.035 250.98 273.502 253.335C272.802 254.178 271.753 255.428 270.412 256.852C264.989 262.607 259.975 265.834 250.412 271.735C244.523 275.368 240.208 278.013 233.299 282.083C224.903 287.024 218.11 290.861 209.655 293.274C207.556 293.884 204.233 294.698 200.035 294.262C197.994 294.059 194.321 293.681 190.793 291.123C186.274 287.867 184.846 283.1 184.263 281.007C182.951 276.327 183.446 271.938 184.671 267.375C185.516 264.177 188.577 253.567 199.218 241.62C201.347 239.237 207.411 233.859 219.48 223.104C222.396 220.517 224.786 218.395 226.39 217C225.165 216.07 223.941 215.169 222.687 214.268Z" fill="white"/>
<path opacity="0.18" d="M262.336 206.216C261.666 208.774 260.587 212.466 258.954 216.797C244.057 256.154 210.763 273.159 213.475 277.403C215.457 280.542 234.465 272.723 248.167 264.497C258.43 258.334 266.068 251.736 271.17 246.765C270.353 245.574 269.1 243.946 267.205 242.405C265.368 240.923 263.619 240.022 262.307 239.469C263.211 238.161 264.406 236.185 265.426 233.656C266.097 232.028 266.68 230.284 267.438 226.738C268.662 221.128 269.158 216.68 269.304 215.285C269.654 211.942 269.974 207.611 269.916 202.495C267.38 203.716 264.872 204.966 262.336 206.216Z" fill="#9B9797"/>
<path d="M269.479 202.466C269.508 207.96 269.158 213.454 268.4 218.919C267.7 223.831 266.826 228.889 265.018 233.54C263.065 238.568 259.712 242.231 255.66 245.69C251.52 249.207 247.351 252.666 243.182 256.125C238.401 260.108 233.591 264.061 228.809 268.043C228.372 268.392 228.984 269.002 229.422 268.654C238.197 261.387 246.972 254.149 255.689 246.795C259.537 243.539 263.036 240.167 265.135 235.487C267.176 230.953 268.167 225.982 268.954 221.099C269.945 214.936 270.412 208.716 270.353 202.466C270.353 201.885 269.479 201.885 269.479 202.466Z" fill="black"/>
<path d="M223.183 215.082C224.378 215.721 225.573 216.361 226.798 217C227.294 217.262 227.731 216.506 227.235 216.244C226.04 215.605 224.845 214.965 223.62 214.326C223.125 214.064 222.687 214.82 223.183 215.082Z" fill="black"/>
<path d="M226.798 216.651C216.419 225.081 205.516 233.423 196.857 243.655C189.394 252.463 183.242 263.625 183.272 275.455C183.272 280.659 184.7 286.094 188.548 289.786C192.397 293.507 197.965 294.96 203.213 294.698C209.626 294.379 215.719 291.85 221.434 289.059C227.556 286.065 233.357 282.519 239.188 279.002C251.199 271.735 264.61 264.962 273.618 253.887C273.968 253.451 273.356 252.841 273.006 253.277C265.455 262.578 254.844 268.537 244.727 274.642C239.159 278.013 233.649 281.443 227.964 284.641C222.396 287.78 216.594 290.774 210.443 292.547C204.67 294.204 198.227 294.553 192.776 291.675C187.528 288.943 184.846 283.653 184.292 277.897C183.213 266.27 189.073 254.701 196.157 245.864C204.991 234.848 216.536 226.069 227.439 217.233C227.847 216.913 227.235 216.303 226.798 216.651Z" fill="black"/>
<path d="M262.919 239.644C268.4 242.26 272.219 247.434 273.123 253.422C273.21 253.974 274.056 253.742 273.968 253.189C273.065 246.998 269.041 241.562 263.386 238.888C262.861 238.656 262.424 239.411 262.919 239.644Z" fill="black"/>
<path d="M264.668 240.4C265.835 239.935 266.767 239.15 267.759 238.394C268.925 237.493 270.12 236.621 271.286 235.72C271.724 235.371 271.286 234.615 270.849 234.964C269.799 235.749 268.75 236.534 267.7 237.348C266.68 238.132 265.66 239.092 264.435 239.557C263.94 239.76 264.144 240.603 264.668 240.4Z" fill="black"/>
<path d="M271.723 235.371C272.307 233.656 273.006 231.97 273.939 230.4C275.222 228.249 277.146 228.482 279.303 229.034C282.656 229.877 285.863 231.156 289.245 231.912C295.804 233.365 302.539 233.859 309.244 233.423C309.798 233.394 309.798 232.522 309.244 232.551C301.344 233.074 293.385 232.261 285.746 230.11C283.91 229.586 282.131 228.918 280.295 228.395C278.895 227.988 277.234 227.523 275.776 227.813C274.464 228.075 273.706 229.063 273.065 230.168C272.161 231.737 271.461 233.423 270.878 235.138C270.703 235.662 271.549 235.894 271.723 235.371Z" fill="black"/>
<path d="M272.977 249.411C275.164 247.754 277.321 246.097 279.507 244.44C279.945 244.091 279.507 243.335 279.07 243.684C276.884 245.341 274.726 246.998 272.54 248.655C272.103 249.004 272.54 249.759 272.977 249.411Z" fill="black"/>
<path d="M279.478 244.237C286.592 245.777 293.851 244.614 300.586 242.057C303.647 240.894 307.145 239.586 309.769 237.609C311.606 236.243 311.868 233.627 309.448 232.697C308.923 232.493 308.69 233.336 309.215 233.54C310.527 234.034 310.673 235.458 309.769 236.446C309.332 236.941 308.719 237.26 308.136 237.609C306.941 238.278 305.717 238.888 304.492 239.47C301.897 240.69 299.215 241.737 296.446 242.551C290.994 244.12 285.28 244.644 279.682 243.423C279.158 243.277 278.924 244.12 279.478 244.237Z" fill="black"/>
<path d="M203.504 118.693C207.935 115.031 214.553 110.612 223.387 107.996C227.527 106.775 232.716 105.264 239.596 105.845C250.15 106.746 257.409 111.92 259.975 113.81C263.998 116.746 266.738 119.856 268.429 122.036C268.75 142.412 269.187 162.818 269.741 183.195C269.916 189.473 270.091 195.781 270.295 202.06C266.155 204.617 260.354 207.495 253.007 209.181C235.806 213.105 221.492 207.873 215.69 205.344C215.661 200.199 215.34 192.467 213.766 183.195C211.201 167.963 207.207 161.83 204.699 148.72C203.446 141.947 202.251 131.774 203.504 118.693Z" fill="#0A3871"/>
<path d="M256.214 123.722C254.785 125.291 254.523 127.065 254.61 133.866C254.669 141.017 255.048 145.9 255.281 151.569C255.456 155.667 255.602 158.923 255.514 163.167C255.427 168.515 255.077 172.904 254.756 175.84C251.899 179.038 249.363 181.538 247.468 183.34C243.211 187.38 238.576 191.74 231.725 195.839C229.014 197.438 226.681 198.6 225.107 199.327C223.678 199.094 222.075 198.746 220.326 198.31C216.186 197.263 214.466 196.333 211.346 196.333C210.414 196.333 207.469 196.333 207.177 197.379C206.915 198.251 208.548 199.618 209.83 200.286C211.026 200.897 211.551 200.722 212.746 201.275C214.087 201.914 214.961 202.844 215.486 203.542C214.932 204.327 214.087 205.518 213.154 207.059C212.075 208.861 211.842 209.559 210.588 211.71C209.277 213.977 208.606 215.111 208.023 215.692C207.119 216.535 206.565 216.709 202.513 218.512C198.49 220.314 197.79 220.721 197.79 221.215C197.79 221.709 198.577 221.825 201.697 223.163C204.233 224.238 204.466 224.471 205.778 224.848C207.411 225.314 208.402 225.604 209.597 225.343C211.492 224.965 212.717 223.54 213.241 222.785C213.504 223.017 214.145 223.511 214.991 223.54C215.661 223.54 216.215 223.279 216.652 222.93C218.489 221.622 219.393 219.209 221.2 216.506C221.521 216.041 222.658 214.326 224.495 212.407C225.632 211.187 226.681 210.286 227.439 209.675C228.46 209.443 229.976 209.094 231.783 208.571C238.809 206.565 243.882 204.152 248.138 202.117C250.616 200.926 253.415 199.356 258.983 196.246C263.823 193.542 266.33 192.031 268.546 189.066C268.779 188.746 269.974 187.148 271.024 184.793C271.345 184.066 272.482 181.479 273.094 176.945C273.385 174.939 273.385 173.835 273.414 167.556C273.473 159.562 273.473 160.522 273.473 159.708C273.444 147.993 272.831 149.04 272.627 138.285C272.598 137.267 272.569 134.506 271.723 131.018C270.82 127.239 269.683 125.553 269.041 124.71C268.225 123.635 267.234 122.356 265.543 121.629C262.453 120.263 258.342 121.367 256.214 123.722Z" fill="white"/>
<path opacity="0.25" d="M265.572 121.6C266.272 123.896 267.117 127.21 267.7 131.221C268.4 136.076 268.662 141.424 267.088 155.406C265.776 167.091 265.135 172.933 263.444 178.398C261.024 186.188 259.275 191.857 253.94 196.333C250.5 199.211 246.739 200.548 239.188 203.193C233.649 205.141 228.897 206.303 225.632 207.03C223.299 210.169 219.83 214.152 214.903 217.93C211.055 220.895 207.352 222.93 204.291 224.325C204.729 224.616 206.536 225.779 208.985 225.459C211.842 225.081 213.387 223.046 213.65 222.668C214.203 223.075 215.02 223.511 215.924 223.366C217.789 223.075 218.781 220.43 219.276 219.238C220.355 216.768 222.512 213.367 227.352 209.646C230.559 208.803 234.903 207.524 239.946 205.606C246.972 202.902 251.695 200.286 256.768 197.467C264.902 192.932 266.738 191.072 268.079 189.27C270.528 185.985 271.549 182.613 271.986 181.131C272.773 178.485 272.919 175.521 273.21 169.736C273.414 165.434 273.414 162.12 273.414 159.62C273.414 155.318 273.327 152.121 273.24 149.36C273.123 145.348 272.89 140.639 272.307 135C271.869 130.902 271.549 129.274 270.616 127.442C269.187 124.536 267.059 122.675 265.572 121.6Z" fill="#9B9797"/>
<path d="M255.777 123.605C254.261 127.384 254.086 131.454 254.173 135.494C254.261 139.942 254.494 144.36 254.698 148.807C255.106 157.818 255.398 166.858 254.319 175.84C254.261 176.392 255.135 176.392 255.193 175.84C256.243 167.062 256.01 158.196 255.602 149.389C255.398 145.028 255.164 140.668 255.048 136.279C254.931 132.064 255.019 127.82 256.622 123.838C256.826 123.315 255.981 123.082 255.777 123.605Z" fill="black"/>
<path d="M256.01 175.085C253.328 176.567 251.17 178.718 249.1 180.956C246.856 183.369 244.611 185.723 242.103 187.874C236.972 192.322 231.2 195.984 225.019 198.833C224.495 199.065 224.961 199.821 225.457 199.589C231.404 196.856 236.972 193.368 241.958 189.153C244.436 187.09 246.71 184.822 248.896 182.468C251.17 179.997 253.444 177.497 256.418 175.869C256.943 175.55 256.505 174.794 256.01 175.085Z" fill="black"/>
<path d="M225.224 198.891C222.017 198.222 218.781 197.525 215.574 196.798C213.97 196.449 212.338 196.013 210.705 195.723C209.685 195.548 208.606 195.461 207.702 196.042C206.303 196.943 206.303 198.6 207.557 199.589C208.46 200.315 209.626 200.635 210.705 200.984C212.454 201.536 213.941 202.234 215.078 203.716C215.428 204.152 216.186 203.716 215.836 203.28C214.816 201.972 213.591 201.042 212.017 200.49C210.938 200.112 209.743 199.879 208.752 199.327C208.052 198.949 207.148 198.368 207.673 197.321C208.169 196.333 209.422 196.42 210.326 196.566C212.746 196.914 215.166 197.612 217.585 198.164C220.063 198.717 222.541 199.24 225.019 199.763C225.544 199.85 225.777 199.007 225.224 198.891Z" fill="black"/>
<path d="M214.378 203.862C213.096 206.216 211.784 208.542 210.501 210.896C209.86 212.03 209.306 213.251 208.548 214.355C207.761 215.489 206.711 216.07 205.487 216.651C203.183 217.727 200.705 218.599 198.49 219.849C197.498 220.43 196.857 221.477 197.703 222.494C198.752 223.744 200.822 223.25 202.221 223.017C204.145 222.698 205.982 222.058 207.731 221.244C211.376 219.5 214.466 216.768 216.682 213.396C217.002 212.931 216.244 212.495 215.924 212.96C213.97 215.983 211.259 218.425 208.081 220.11C206.565 220.895 204.933 221.535 203.271 221.913C202.338 222.145 201.347 222.349 200.356 222.378C199.452 222.436 199.219 222.552 198.781 221.651C198.227 221.128 198.286 220.779 198.927 220.605C199.131 220.517 199.306 220.43 199.51 220.343C201.376 219.471 203.271 218.628 205.137 217.756C206.594 217.087 208.023 216.506 209.014 215.198C210.18 213.657 210.997 211.826 211.929 210.14C213.008 208.193 214.087 206.245 215.136 204.327C215.399 203.804 214.641 203.368 214.378 203.862Z" fill="black"/>
<path d="M227.702 210.227C235.486 208.047 243.036 205.141 250.266 201.536C253.852 199.734 257.351 197.786 260.762 195.635C263.823 193.717 267.059 191.769 269.245 188.834C269.566 188.369 268.808 187.932 268.487 188.398C266.214 191.479 262.657 193.484 259.45 195.461C256.185 197.467 252.803 199.327 249.363 201.042C242.337 204.501 235.019 207.292 227.468 209.414C226.944 209.53 227.177 210.373 227.702 210.227Z" fill="black"/>
<path d="M256.36 124.39C258.779 119.652 264.989 120.728 268.05 124.1C271.723 128.169 271.898 134.128 272.307 139.302C273.181 150.609 273.356 162.004 272.656 173.311C272.307 178.805 271.49 184.619 267.817 188.979C267.467 189.415 268.079 190.025 268.429 189.589C271.724 185.636 272.86 180.636 273.327 175.637C273.939 169.242 273.939 162.76 273.881 156.336C273.823 149.621 273.502 142.877 272.89 136.192C272.423 131.163 271.519 125.611 267.35 122.268C263.794 119.42 257.846 119.507 255.572 123.954C255.339 124.449 256.097 124.885 256.36 124.39Z" fill="black"/>
<path d="M201.434 223.511C203.562 224.471 206.128 225.924 208.548 225.924C210.88 225.895 212.6 223.976 214.174 222.523C218.693 218.337 223.212 214.152 227.731 209.995C228.139 209.617 227.527 209.007 227.119 209.384C223.299 212.931 219.48 216.448 215.661 219.994C213.97 221.535 212.221 223.744 210.093 224.703C207.586 225.837 204.145 223.802 201.901 222.785C201.376 222.523 200.939 223.279 201.434 223.511Z" fill="black"/>
<path d="M213.3 222.901C214.262 224.703 216.39 223.977 217.469 222.727C219.597 220.227 221.259 217.204 223.066 214.501C223.387 214.035 222.629 213.599 222.308 214.064C221.171 215.75 220.034 217.436 218.897 219.122C218.256 220.052 215.428 225.081 214.058 222.465C213.795 221.971 213.037 222.407 213.3 222.901Z" fill="black"/>
<path d="M206.536 221.477C207.411 221.942 208.489 222.407 209.451 221.942C209.947 221.68 210.151 221.273 210.384 220.808C210.793 220.023 211.201 219.413 211.959 218.919C212.425 218.599 211.988 217.843 211.521 218.163C210.822 218.628 210.239 219.209 209.83 219.965C209.539 220.518 209.364 221.186 208.606 221.244C208.052 221.302 207.44 220.954 206.973 220.721C206.507 220.488 206.04 221.215 206.536 221.477Z" fill="black"/>
<path d="M200.56 55.3835C199.539 57.4473 198.519 60.9063 198.198 62.04C197.732 63.6678 196.682 67.4756 196.099 72.5334C195.778 75.3239 195.428 78.3761 195.72 82.4165C195.866 84.335 196.07 87.358 197.207 91.1077C197.965 93.6657 199.073 97.3573 202.076 101.136C204.699 104.421 207.702 106.485 210.093 107.735C211.609 107.764 213.445 107.676 215.486 107.298C219.16 106.601 222.017 105.235 223.941 104.13C224.203 105.613 224.553 107.182 224.99 108.81C225.894 112.182 227.002 115.147 228.11 117.705C229.305 117.501 230.734 117.152 232.25 116.455C237.06 114.217 239.363 110.089 240.179 108.374C239.742 106.688 239.392 104.857 239.071 102.967C237.964 95.9039 238.255 89.5962 238.955 84.4803C239.567 84.6838 240.558 84.9454 241.783 84.8872C244.173 84.7419 245.806 83.4339 246.622 82.7362C247.322 82.1549 250.5 79.3353 250.383 75.1495C250.354 74.1612 250.296 71.7486 248.576 70.4406C246.972 69.2488 244.815 69.6848 243.24 70.0045C241.433 70.3824 240.092 71.1382 239.276 71.6614C239.888 69.6557 241.17 64.5107 239.276 58.5228C238.867 57.2438 236.156 49.1048 228.168 45.5876C217.323 40.7624 204.291 47.913 200.56 55.3835Z" fill="white"/>
<path opacity="0.24" d="M233.503 55.5579C233.736 58.2612 233.911 62.1853 233.503 66.8362C232.25 80.934 226.652 90.7299 225.194 93.1716C222.979 96.8922 219.189 102.299 213.125 107.618C214.932 107.386 217.002 106.979 219.218 106.194C225.311 104.043 229.393 100.351 231.608 97.9387C231.783 101.165 232.337 105.089 233.649 109.391C234.232 111.223 234.873 112.909 235.544 114.42C237.089 112.414 238.605 110.409 240.15 108.374C239.83 106.485 239.538 104.479 239.334 102.415C238.663 96.1655 238.663 90.4101 239.013 85.2942C240.325 85.3233 242.22 85.207 244.232 84.4222C253.036 80.934 258.05 67.0687 253.298 59.5111C253.094 59.1914 252.045 57.5636 249.887 56.1102C243.211 51.6337 234.728 55.0347 233.503 55.5579Z" fill="#9B9797"/>
<path d="M198.431 61.168C197.848 59.1623 197.032 55.3254 197.877 50.6164C198.14 49.163 199.044 44.4831 202.25 40.7915C206.944 35.4139 212.833 36.4313 220.471 33.6989C225.311 31.984 231.958 28.3795 238.692 19.8918C238.08 23.0311 237.468 26.1995 236.856 29.3388C237.905 29.6295 241.433 30.3852 245.048 28.6121C251.054 25.6762 251.578 18.5837 251.607 18.264C252.336 19.8918 253.648 23.4962 253.065 28.0889C252.657 31.2282 251.52 33.5827 250.704 35.007C251.054 35.3849 252.919 37.3033 255.077 37.0127C257.701 36.6639 260.149 33.0885 259.45 28.4668C260.033 30.1817 260.733 33.0013 260.558 36.4604C260.324 40.6752 258.925 43.8436 257.992 45.5586C258.225 45.7621 259.712 47.0992 261.811 46.8376C263.648 46.605 265.222 45.2679 265.834 43.3785C265.689 45.3261 265.339 48.1456 264.202 51.3721C262.657 55.7323 261.374 56.0811 260.733 59.1914C259.712 64.0748 262.336 65.7316 261.636 70.0918C261.053 73.7543 258.663 76.0507 255.631 78.9865C250.121 84.3059 243.794 87.1836 238.488 88.7823C238.722 87.1546 238.984 85.5268 239.217 83.899C239.888 84.3059 241.054 84.8582 242.512 84.8001C245.485 84.6838 247.351 82.0386 248.342 80.6143C249.479 79.0156 251.374 76.2832 250.354 73.3474C249.508 70.9638 247.264 69.9755 247.06 69.8883C244.436 68.7837 241.054 69.772 238.867 72.4463C237.643 67.6501 236.448 62.883 235.223 58.0868C231.083 55.4707 226.973 52.8837 222.833 50.2676C220.792 49.8897 215.224 49.1339 208.985 51.8954C202.688 54.6859 199.481 59.4239 198.431 61.168Z" fill="#0A3871"/>
<path d="M197.994 61.0517C195.516 70.2953 194.029 80.1202 196.303 89.5672C198.169 97.2411 202.892 105.99 210.938 108.49C211.463 108.665 211.696 107.822 211.171 107.647C203.096 105.148 198.577 96.0493 196.915 88.3754C194.962 79.3644 196.449 70.0627 198.81 61.2843C198.985 60.7611 198.14 60.5285 197.994 61.0517Z" fill="black"/>
<path d="M211.58 108.345C225.019 106.979 236.244 97.2992 239.392 84.1605C239.509 83.6082 238.692 83.3757 238.547 83.928C235.486 96.6306 224.67 106.136 211.58 107.473C211.026 107.531 210.997 108.403 211.58 108.345Z" fill="black"/>
<path d="M238.634 84.3931C244.64 88.0556 250.5 80.3817 250.879 75.0042C251.083 72.1556 249.771 69.9755 246.943 69.1616C244.319 68.4058 241.462 69.1906 239.596 71.1672C239.217 71.5742 239.829 72.1846 240.208 71.7777C241.754 70.1208 244.086 69.3941 246.331 69.8883C247.497 70.1499 248.78 70.7894 249.45 71.8358C250.179 72.9695 250.092 74.5391 249.917 75.789C249.217 80.2945 244.202 86.7476 239.071 83.6083C238.605 83.3466 238.139 84.1024 238.634 84.3931Z" fill="black"/>
<path d="M238.576 84.335C237.439 92.3867 237.847 100.555 239.771 108.461C239.917 109.013 240.762 108.781 240.617 108.229C238.722 100.468 238.314 92.4449 239.421 84.5675C239.48 84.0152 238.634 83.7827 238.576 84.335Z" fill="black"/>
<path d="M223.503 104.246C224.407 108.955 225.807 113.519 227.731 117.937C227.964 118.461 228.722 117.995 228.489 117.501C226.594 113.17 225.224 108.665 224.349 104.014C224.232 103.462 223.416 103.694 223.503 104.246Z" fill="black"/>
<path d="M228.343 118.054C233.97 117.152 238.722 113.286 240.85 108.025C241.054 107.502 240.208 107.269 240.004 107.793C237.993 112.792 233.416 116.368 228.11 117.211C227.556 117.298 227.789 118.141 228.343 118.054Z" fill="black"/>
<path d="M224.203 105.264C225.398 105.322 226.215 104.508 227.118 103.81C228.314 102.88 229.451 101.892 230.5 100.845C232.454 98.8978 234.028 96.6596 235.048 94.1016C235.252 93.5784 234.407 93.3459 234.203 93.8691C233.299 96.1364 231.9 98.1421 230.209 99.8861C229.451 100.7 228.634 101.427 227.789 102.153C226.856 102.938 225.515 104.45 224.203 104.392C223.649 104.363 223.649 105.235 224.203 105.264Z" fill="black"/>
<path d="M224.261 104.799C226.739 103.2 229.043 101.369 231.2 99.3632C231.608 98.9853 230.996 98.3458 230.588 98.7527C228.489 100.729 226.244 102.502 223.824 104.072C223.329 104.334 223.795 105.089 224.261 104.799Z" fill="black"/>
<path d="M207.119 62.7376C205.487 70.1499 204.554 77.6785 204.35 85.2652C204.35 85.7012 204.933 85.8465 205.166 85.4977C206.303 83.6955 207.44 81.8642 208.577 80.062C208.868 79.5969 208.11 79.1319 207.819 79.626C206.682 81.4282 205.545 83.2595 204.408 85.0617C204.67 85.1489 204.962 85.207 205.224 85.2942C205.428 77.7947 206.361 70.3243 207.965 62.9993C208.081 62.4179 207.236 62.1854 207.119 62.7376Z" fill="black"/>
<path d="M208.285 96.1946C207.586 94.8866 207.119 93.4913 207.003 92.0089C206.915 90.9624 207.148 86.7185 209.131 88.4045C210.18 89.3056 210.034 91.2822 210.064 92.5902C210.064 93.2006 210.064 93.8401 210.005 94.4506C209.976 94.8866 209.918 95.3226 209.83 95.7295C209.072 96.2528 208.489 96.2237 208.11 95.6714C207.731 95.2645 207.09 95.8749 207.498 96.2818C208.752 97.5608 210.384 97.619 210.734 95.6133C210.997 94.189 210.997 92.6774 210.88 91.2531C210.792 90.1195 210.792 88.4917 209.947 87.6196C208.693 86.3406 206.915 87.5324 206.419 88.8986C205.516 91.3403 206.39 94.4215 207.556 96.6306C207.79 97.1248 208.548 96.6888 208.285 96.1946Z" fill="black"/>
<path d="M214.32 70.0336C215.195 74.1322 220.588 74.4519 222.192 70.6731C222.396 70.1499 221.55 69.9174 221.346 70.4406C220.034 73.5218 215.836 72.9404 215.166 69.8011C215.049 69.2779 214.203 69.4813 214.32 70.0336Z" fill="black"/>
<path d="M212.6 59.9471C213.708 57.4764 216.565 56.2846 219.189 56.8369C221.9 57.4182 223.97 59.5111 225.311 61.8075C225.602 62.3016 226.36 61.8656 226.069 61.3715C224.524 58.7263 222.075 56.3718 218.926 55.9067C216.098 55.4998 213.066 56.8369 211.842 59.4821C211.609 60.0343 212.367 60.4704 212.6 59.9471Z" fill="black"/>
<path d="M195.516 60.9064C196.303 59.2786 197.673 57.5055 199.685 57.5345C201.609 57.5636 203.008 59.2495 203.971 60.732C204.262 61.1971 205.02 60.7611 204.729 60.296C203.621 58.5229 201.959 56.6916 199.685 56.6625C197.353 56.6334 195.72 58.5519 194.787 60.4704C194.525 60.9646 195.283 61.4006 195.516 60.9064Z" fill="black"/>
<path d="M200.676 74.0741C201.191 74.0741 201.609 72.161 201.609 69.8011C201.609 67.4412 201.191 65.5282 200.676 65.5282C200.161 65.5282 199.743 67.4412 199.743 69.8011C199.743 72.161 200.161 74.0741 200.676 74.0741Z" fill="black"/>
<path d="M203.358 120.059C203.271 121.135 203.154 122.617 203.096 124.332C202.834 130.204 203.067 134.651 203.154 135.843C203.388 139.709 203.912 144.767 205.137 150.639C203.971 151.976 202.221 153.952 199.977 156.278C195.72 160.725 193.534 162.992 190.035 165.347C186.129 167.963 183.417 168.777 181.96 169.155C180.123 169.591 178.374 169.998 176.246 169.533C172.776 168.748 170.706 166.19 169.948 165.201C168.024 162.76 167.587 160.376 166.8 155.725C166.217 152.324 166.1 149.737 165.925 144.738C165.838 142.354 165.721 139.447 165.779 135.552C165.838 131.163 166.071 125.96 166.712 120.146C167.004 117.53 167.412 114.304 168.053 110.641C167.558 109.944 167.033 109.246 166.479 108.519C165.896 107.764 165.342 107.037 164.759 106.31C163.272 107.56 161.814 108.839 160.328 110.089C159.949 110.234 159.278 110.467 158.462 110.38C156.917 110.234 156.013 109.159 155.692 108.81C154.264 107.182 154.468 105.118 154.526 104.711C156.538 102.531 158.549 100.38 160.59 98.2003C160.619 96.9504 160.794 95.3226 161.29 93.5204C161.669 92.1833 162.135 91.0787 162.572 90.1486C162.951 89.3928 163.476 88.5498 164.147 87.7069C165.342 86.1372 166.625 85.0326 167.674 84.2769C166.829 84.6547 166.625 84.6547 166.567 84.5966C166.421 84.3641 167.791 82.6491 169.715 82.4747C170.794 82.3584 171.639 82.7653 172.222 83.027C173.126 83.463 173.738 84.0153 174.117 84.4222C175.925 82.8816 177.732 81.341 179.54 79.8295C180.181 80.2074 180.823 80.6434 181.464 81.0794C182.951 82.0968 184.292 83.1142 185.487 84.1025C185.05 84.6547 184.496 85.2652 183.796 85.8756C182.63 86.893 181.464 87.5034 180.56 87.9103C181.114 88.0847 182.105 88.4917 182.601 89.4509C183.097 90.3811 182.893 91.3985 182.601 92.6774C182.397 93.5495 182.135 94.2471 181.93 94.7122C182.047 95.933 182.105 97.5899 181.756 99.4502C181.202 102.502 179.919 104.77 179.044 106.078C179.015 107.211 178.986 108.984 179.044 111.165C179.277 120.146 180.589 125.408 181.435 132.035C181.93 135.814 182.426 141.424 182.28 148.488C182.951 148.052 183.913 147.354 184.992 146.453C187.732 144.156 189.481 141.86 191.784 138.488C194.058 135.204 195.545 132.762 197.557 129.506C198.81 127.384 200.822 124.158 203.358 120.059Z" fill="white"/>
<path opacity="0.24" d="M176.858 93.5203C176.245 94.8575 175.633 96.2237 175.021 97.6189C173.243 101.805 171.785 105.816 170.59 109.653C170.327 115.699 170.182 120.757 170.065 124.419C169.919 129.971 170.269 136.599 170.91 149.854C171.173 155.318 171.406 158.632 173.972 161.045C176.654 163.545 180.385 163.603 182.484 163.603C193.679 163.574 202.046 154.068 204.35 151.307C201.23 156.597 197.673 160.056 195.254 162.091C192.513 164.388 188.986 167.265 183.505 168.69C178.869 169.91 176.77 169.649 176.216 169.533C172.222 168.573 170.007 165.26 169.219 164.126C167.324 161.306 166.712 158.371 166.362 152.063C166.013 145.581 166.392 143.866 166.508 134.942C166.596 126.425 166.275 124.012 166.916 118.112C167.295 114.653 167.762 111.804 168.141 109.885C167.004 108.694 165.867 107.502 164.73 106.339C163.768 107.182 162.777 107.996 161.785 108.839C161.144 109.391 160.473 109.944 159.832 110.467C159.249 110.525 158.404 110.496 157.5 110.118C155.167 109.13 153.71 106.252 154.439 105.264C154.905 104.595 156.13 105.118 157.82 105.118C160.736 105.147 162.689 103.665 166.567 100.874C169.307 98.8688 172.456 96.6306 176.858 93.5203Z" fill="#9B9797"/>
<path d="M202.979 119.827C196.245 129.099 191.26 139.738 182.747 147.644C182.339 148.022 182.951 148.633 183.359 148.255C191.93 140.29 196.945 129.593 203.737 120.263C204.087 119.827 203.329 119.391 202.979 119.827Z" fill="black"/>
<path d="M177.907 170.201C189.452 169.445 197.732 159.795 204.67 151.598C205.02 151.162 204.408 150.551 204.058 150.987C197.324 159.01 189.161 168.602 177.936 169.358C177.353 169.358 177.353 170.23 177.907 170.201Z" fill="black"/>
<path d="M172.426 88.3173C172.485 90.6137 174.001 92.5903 176.216 93.2298C176.77 93.3751 177.003 92.5321 176.45 92.3868C174.613 91.8636 173.359 90.2067 173.301 88.3173C173.272 87.765 172.397 87.765 172.426 88.3173Z" fill="black"/>
<path d="M173.33 88.0557C173.622 85.5268 178.141 87.358 179.365 87.9975C180.56 88.608 181.756 89.2184 182.018 90.6718C182.222 91.7763 181.872 92.9391 181.581 94.0146C181.435 94.5669 182.28 94.7994 182.426 94.2471C182.834 92.7937 183.272 91.1369 182.659 89.7125C182.076 88.2592 180.473 87.5906 179.161 86.9511C177.82 86.3116 176.362 85.8465 174.846 86.0209C174.234 86.1081 173.447 86.2535 172.951 86.6604C172.426 87.0674 172.543 87.3581 172.456 88.0847C172.397 88.608 173.272 88.608 173.33 88.0557Z" fill="black"/>
<path d="M181.289 93.8402C181.202 96.0493 181.697 98.2003 181.172 100.409C180.677 102.444 179.686 104.334 178.694 106.165C178.432 106.659 179.19 107.095 179.452 106.601C180.473 104.682 181.493 102.735 182.018 100.642C182.572 98.3747 182.076 96.1365 182.164 93.8402C182.193 93.2588 181.318 93.2588 181.289 93.8402Z" fill="black"/>
<path d="M178.694 106.194C178.024 121.513 182.426 136.512 181.726 151.83C181.697 152.383 182.572 152.383 182.601 151.83C183.301 136.512 178.898 121.513 179.569 106.194C179.598 105.642 178.724 105.642 178.694 106.194Z" fill="black"/>
<path d="M164.38 106.514C165.255 107.734 166.188 108.897 167.237 109.973C167.616 110.38 168.228 109.769 167.849 109.362C166.858 108.316 165.954 107.24 165.138 106.078C164.788 105.612 164.03 106.048 164.38 106.514Z" fill="black"/>
<path d="M167.733 109.74C166.071 119.187 165.255 128.78 165.284 138.372C165.313 143.139 165.546 147.935 166.013 152.673C166.392 156.714 166.858 160.958 168.986 164.504C170.91 167.73 174.292 170.172 178.141 170.085C178.694 170.056 178.694 169.184 178.141 169.213C172.747 169.358 169.278 164.562 168.024 159.853C166.625 154.679 166.508 149.04 166.304 143.72C165.867 132.442 166.654 121.106 168.607 110.002C168.666 109.42 167.82 109.188 167.733 109.74Z" fill="black"/>
<path d="M162.223 96.6887C159.482 98.9851 156.829 101.398 154.322 103.927C153.914 104.334 154.555 104.944 154.934 104.537C157.471 102.008 160.094 99.5955 162.835 97.2991C163.272 96.9503 162.66 96.3399 162.223 96.6887Z" fill="black"/>
<path d="M154.06 104.711C153.622 108.083 156.188 110.932 159.599 110.903C160.153 110.903 160.153 110.031 159.599 110.031C156.654 110.06 154.555 107.589 154.934 104.711C155.022 104.159 154.147 104.159 154.06 104.711Z" fill="black"/>
<path d="M154.876 104.508C157.937 104.595 160.065 107.328 159.424 110.293C159.307 110.845 160.153 111.077 160.269 110.525C161.056 106.95 158.549 103.752 154.876 103.636C154.322 103.636 154.322 104.508 154.876 104.508Z" fill="black"/>
<path d="M160.619 110.38C163.943 107.357 167.325 104.363 170.561 101.252C172.047 99.8281 173.476 98.3747 174.817 96.8051C175.546 95.9621 177.383 94.3052 177.412 93.1425C177.412 92.9972 177.324 92.8228 177.208 92.7646C177.149 92.7356 177.091 92.7065 177.062 92.7065C176.887 92.6193 176.654 92.6193 176.537 92.7646C176.508 92.7937 176.479 92.8228 176.45 92.8809C176.1 93.3169 176.712 93.9274 177.062 93.4913C177.091 93.4623 177.12 93.4332 177.149 93.3751C176.974 93.4041 176.799 93.4332 176.625 93.4332C176.566 93.1716 176.479 93.1716 176.362 93.4623C176.216 93.6657 176.071 93.8692 175.896 94.0727C175.546 94.5087 175.225 94.9447 174.846 95.3807C174.263 96.1074 173.622 96.8051 173.009 97.5027C171.727 98.8979 170.386 100.206 169.015 101.485C166.042 104.275 163.01 106.979 160.007 109.74C159.57 110.147 160.211 110.758 160.619 110.38Z" fill="black"/>
<path d="M160.998 98.3165C161.202 96.9213 161.406 95.526 161.61 94.1308C161.756 93.0843 161.873 91.9216 162.456 90.9915C163.797 88.8405 165.692 90.381 166.712 91.8344C167.15 92.4449 167.558 93.1134 167.995 93.7238C168.228 94.0726 169.365 95.3226 169.22 95.7586C169.365 95.6423 169.511 95.5551 169.628 95.4388C169.569 95.4388 169.54 95.4388 169.482 95.4388C168.928 95.4098 168.928 96.2818 169.482 96.3109C169.54 96.3109 169.569 96.3109 169.628 96.3109C169.832 96.3109 170.007 96.1655 170.036 95.9911C170.24 95.2644 169.744 94.8284 169.365 94.247C168.636 93.1715 167.937 92.067 167.179 91.0205C166.392 89.945 165.371 88.8986 163.914 89.0439C162.514 89.1893 161.669 90.2648 161.231 91.5147C160.503 93.5785 160.444 95.933 160.124 98.084C160.065 98.6363 160.911 98.8688 160.998 98.3165Z" fill="black"/>
<path d="M162.368 95.032C163.156 96.5726 164.467 98.1423 166.333 98.2585C167.878 98.3748 169.336 97.5028 169.744 95.9912C169.89 95.439 169.045 95.2064 168.899 95.7587C168.52 97.154 166.975 97.6772 165.692 97.2412C164.467 96.8051 163.68 95.7296 163.126 94.6251C162.864 94.1018 162.106 94.5379 162.368 95.032Z" fill="black"/>
<path d="M163.447 89.3638C163.593 87.9394 165.225 87.5616 166.333 87.9394C167.499 88.3173 168.403 89.3638 169.22 90.2067C169.861 90.8753 171.115 91.8054 171.289 92.7356C171.523 93.9855 169.948 94.8285 168.899 95.1482C168.374 95.2936 168.578 96.1365 169.132 95.9912C170.415 95.6133 172.281 94.4797 172.485 92.9682C172.572 92.3577 172.193 92.038 171.785 91.602C170.969 90.7299 170.182 89.887 169.336 89.044C168.199 87.8813 166.741 86.6314 164.992 86.9221C163.68 87.1255 162.718 87.9976 162.572 89.3347C162.514 89.916 163.389 89.916 163.447 89.3638Z" fill="black"/>
<path d="M165.021 87.2127C165.43 86.7476 165.634 86.1372 166.013 85.6721C166.946 84.5094 168.403 85.5849 169.365 86.2825C171.231 87.5906 173.214 89.9741 171.523 92.2414C171.202 92.7065 171.96 93.1425 172.281 92.6775C174.088 90.2358 172.31 87.4162 170.24 85.8465C169.278 85.1198 167.82 83.8118 166.508 84.1897C165.342 84.5094 165.138 85.8465 164.409 86.6314C164.03 87.0092 164.642 87.6197 165.021 87.2127Z" fill="black"/>
<path d="M167.966 84.5675C168.986 83.3176 170.327 82.0096 171.902 83.3176C172.951 84.1606 173.622 85.3523 174.001 86.6023C174.176 87.1255 174.992 86.922 174.846 86.3697C174.351 84.6838 173.214 82.7362 171.523 82.0386C169.803 81.341 168.374 82.7072 167.354 83.9571C167.004 84.364 167.616 85.0035 167.966 84.5675Z" fill="black"/>
<path d="M174.409 84.6838C176.216 83.1432 178.024 81.6026 179.831 80.0911C180.269 79.7132 179.627 79.1028 179.219 79.4807C177.412 81.0213 175.604 82.5618 173.797 84.0734C173.359 84.4512 174.001 85.0617 174.409 84.6838Z" fill="black"/>
<path d="M180.852 88.4045C182.572 87.1546 184.234 85.8174 185.779 84.3641C186.187 83.9862 185.575 83.3758 185.167 83.7537C183.651 85.1489 182.076 86.4569 180.415 87.6487C179.948 87.9685 180.385 88.7242 180.852 88.4045Z" fill="black"/>
<path d="M193.942 86.2244C203.667 86.2244 211.55 78.3639 211.55 68.6675C211.55 58.9711 203.667 51.1106 193.942 51.1106C184.217 51.1106 176.333 58.9711 176.333 68.6675C176.333 78.3639 184.217 86.2244 193.942 86.2244Z" stroke="black" stroke-width="3" stroke-miterlimit="10"/>
<path d="M183.272 70.8185C189.744 66.6909 196.361 62.7958 203.125 59.1332C203.621 58.8716 203.183 58.1159 202.688 58.3775C195.924 62.0109 189.306 65.906 182.834 70.0627C182.368 70.3825 182.805 71.1382 183.272 70.8185Z" fill="black"/>
<path d="M184 78.4342C189.335 74.5391 194.729 70.7894 200.239 67.1269C200.705 66.8071 200.268 66.0513 199.802 66.3711C194.321 70.0336 188.898 73.8124 183.563 77.6785C183.097 77.9982 183.534 78.754 184 78.4342Z" fill="black"/>
</g>
<defs>
<clipPath id="clip0_25_18">
<rect width="354" height="320" fill="white"/>
</clipPath>
</defs>
</svg>
